#!OML:ASF G:\ViconDB\ViconDB\414\test\team2\shane.ASF
:FULLY-SPECIFIED
:DEGREES
241
root 10.1234 16.366 0.975527 350.873 9.08901 -6.95996
lowerback 7.4248 -2.14432 1.99828
upperback 2.97241 -2.66576 2.47665
thorax -1.0614 -1.32991 1.64791
lowerneck -22.7007 2.59661 -2.72827
upperneck 24.3376 5.27559 -1.97738
head 11.7314 1.84201 0.588871
rclavicle 4.85485e-014 -4.36332e-014
rhumerus -45.9235 11.6782 -90.3013
rradius 40.8073
rwrist 31.1326
rhand -34.9697 -13.9492
rfingers 7.12502
rthumb -8.11554 -43.7733
lclavicle 4.85485e-014 -4.36332e-014
lhumerus -24.8224 -29.1935 96.5785
lradius 32.9385
lwrist -13.0209
lhand -44.8596 9.63164
lfingers 7.12502
lthumb -17.6486 38.8507
rfemur -1.02488 -10.722 21.1437
rtibia 35.0681
rfoot -24.2445 5.15552
rtoes -5.36288
lfemur -0.196036 -6.0434 3.94875
ltibia 47.0187
lfoot -23.3812 -4.30822
ltoes -19.3374
242
root 10.0989 16.3688 1.02488 350.824 9.99848 -6.91289
lowerback 7.41867 -2.13459 2.06297
upperback 2.96144 -2.64693 2.48559
thorax -1.07204 -1.31968 1.61946
lowerneck -22.6155 2.4463 -2.94067
upperneck 24.4841 5.06788 -1.71292
head 11.7571 1.76242 0.687984
rclavicle 2.91452e-014 -3.47873e-016
rhumerus -45.959 12.1252 -89.8413
rradius 41.3556
rwrist 29.8626
rhand -34.4618 -14.0388
rfingers 7.12502
rthumb -7.6253 -43.8814
lclavicle 2.91452e-014 -3.47873e-016
lhumerus -24.8575 -29.9721 96.4365
lradius 33.9001
lwrist -12.7461
lhand -44.5174 8.78972
lfingers 7.12502
lthumb -17.3192 38.038
rfemur -0.529727 -11.6817 20.8583
rtibia 34.6709
rfoot -24.5633 5.36033
rtoes -5.22694
lfemur -1.06391 -5.60625 3.8619
ltibia 48.3075
lfoot -22.95 -3.86513
ltoes -17.9803
243
root 10.0788 16.3667 1.06838 350.784 10.8459 -7.01498
lowerback 7.48144 -2.12411 2.4109
upperback 2.90447 -2.60199 2.52126
thorax -1.17949 -1.29519 1.46232
lowerneck -22.5643 2.19969 -3.30044
upperneck 24.6769 4.77016 -1.41401
head 11.8052 1.63121 0.810851
rclavicle 2.88541e-014 -1.87355e-014
rhumerus -45.9667 11.6759 -89.0045
rradius 41.3534
rwrist 31.2647
rhand -35.0164 -14.5714
rfingers 7.12502
rthumb -8.16057 -44.3938
lclavicle 2.88541e-014 -1.87355e-014
lhumerus -24.6437 -30.3224 96.2242
lradius 34.4061
lwrist -13.9851
lhand -44.8355 8.95893
lfingers 7.12502
lthumb -17.6253 38.18
rfemur -0.0572101 -12.3607 20.8564
rtibia 34.2744
rfoot -24.8176 5.26212
rtoes -5.32958
lfemur -1.98328 -4.95438 3.95747
ltibia 49.6019
lfoot -22.8518 -3.40335
ltoes -16.9581
244
root 10.0559 16.3711 1.11422 350.883 11.6669 -6.93843
lowerback 7.42942 -2.05904 2.53295
upperback 2.83986 -2.50561 2.53478
thorax -1.22259 -1.24635 1.39942
lowerneck -22.3983 2.02772 -3.40478
upperneck 24.7285 4.57722 -1.4699
head 11.7952 1.52852 0.774081
rclavicle 1.81837e-014 3.81418e-014
rhumerus -46.0691 12.3503 -88.6968
rradius 41.9314
rwrist 29.1229
rhand -34.8851 -14.5406
rfingers 7.12502
rthumb -8.03384 -44.3679
lclavicle 1.81837e-014 3.81418e-014
lhumerus -24.5297 -31.1389 96.0716
lradius 35.0456
lwrist -14.4513
lhand -44.5681 8.87514
lfingers 7.12502
lthumb -17.368 38.1192
rfemur 0.264488 -12.8837 20.7346
rtibia 33.8835
rfoot -24.9309 4.99519
rtoes -5.44342
lfemur -2.97309 -4.33523 3.75933
ltibia 50.8516
lfoot -22.821 -2.69472
ltoes -15.9273
245
root 10.0351 16.3683 1.15646 350.777 12.557 -6.95521
lowerback 7.57433 -2.0591 2.67561
upperback 2.84754 -2.48684 2.57531
thorax -1.29897 -1.23615 1.36563
lowerneck -22.2541 1.90717 -3.54492
upperneck 24.7208 4.41786 -1.35804
head 11.7595 1.46163 0.810784
rclavicle -2.93258e-014 2.00151e-014
rhumerus -45.9642 12.5422 -88.12
rradius 42.2685
rwrist 28.7873
rhand -34.9052 -14.6897
rfingers 7.12502
rthumb -8.05324 -44.5163
lclavicle -2.93258e-014 2.00151e-014
lhumerus -24.279 -31.3233 95.8357
lradius 35.4601
lwrist -14.944
lhand -44.577 8.08645
lfingers 7.12502
lthumb -17.3766 37.3297
rfemur 0.761297 -13.4024 20.6708
rtibia 33.4953
rfoot -24.9994 4.58471
rtoes -5.60102
lfemur -3.81007 -3.94784 3.59551
ltibia 52.0177
lfoot -22.9545 -2.39882
ltoes -15.0854
